<?xml version="1.0" encoding="UTF-8"?>
<svg xmlns="http://www.w3.org/2000/svg" viewBox="0 0 64 64" role="img" aria-label="Lanna Bloom">
  <rect width="64" height="64" fill="#FFFFFF"/>
  <g fill="none" stroke="#1A3C34" stroke-width="1.75" stroke-linecap="round" stroke-linejoin="round">
    <path d="M32 10.5c-5 2.8-7.5 7.8-6.2 13.2-3.4-1-6.4 1.2-7.4 4.6 3.2 1.4 6.6 1 8.6-1.2.8 3.8 3.8 6.6 7.6 6.6s6.8-2.8 7.6-6.6c2 2.2 5.4 2.6 8.6 1.2-1-3.4-4-5.6-7.4-4.6 1.3-5.4-1.2-10.4-6.2-13.2z"/>
    <path d="M32 17c-2.4 1.8-3.4 4.6-2.8 7.2"/>
    <path d="M32 17c2.4 1.8 3.4 4.6 2.8 7.2"/>
    <path d="M32 24.2V49"/>
    <path d="M32 32.5c-7-3.8-11.5-1.6-12 4.5 5-1.2 8.8 1.2 12 5.8"/>
    <path d="M32 39.5c6.2 4.6 10 6.8 12.5 5.5-.6-6.2-5.2-8.4-12.5-5.5"/>
  </g>
</svg>
