<!-- Replace with official Visa logo from https://usa.visa.com/partner-with-us/visa-acceptance-mark.html -->
<svg xmlns="http://www.w3.org/2000/svg" viewBox="0 0 50 18">
  <path fill="#1A1F71" d="M21 3L17 15h3l4-12h-3zm12 6c0-1.2-.6-1.8-1.8-1.8-.9 0-1.6.3-2.2.9l.2-1h-2.4c-.2.5-.4 1.2-.4 1.8 0 1.2.6 1.8 1.8 1.8.9 0 1.6-.3 2-.8l-.2 1h2.4c.1-.5.2-1 .2-1.9zm-3.6 0c0 .4.4.6 1 .6.5 0 1-.2 1.4-.5l1.2.6c-.6.5-1.4.8-2.4.8-1.4 0-2.2-.8-2.2-1.8 0-1.4 1.2-2.2 3-2.2.6 0 1.2.1 1.6.3l-.2 1.2c-.4-.2-.9-.3-1.4-.3-.8 0-1.2.4-1.2.9zM9 3L5 15H2L6 3h3zm5 0l-3 12H8l3-12h3z"/>
</svg>
